<svg xmlns="http://www.w3.org/2000/svg" width="1020.546" height="191.874" viewBox="0 0 1020.546 191.874"><defs><style>.a{fill:#ceae55;}</style></defs><g transform="translate(-19.819 -117.366)"><path class="a" d="M321.12,180.417c8.906.557,17.685,1.982,26.467,3.363,6.063.955,12.137,1.852,18.174,2.955,7.213,1.318,14.391,2.83,21.584,4.258,1.106.219,2.222.4,3.319.66,1.86.443,2.635,1.44,2.117,3.211-.809,2.77-1.8,5.493-2.834,8.19-.579,1.508-2.052,2.066-3.45,2.589-4.889,1.829-9.816,3.558-14.671,5.473-8.4,3.313-16.749,6.73-25.114,10.119-1.757.711-3.491,1.484-5.231,2.241-1.574.685-1.855,1.65-.737,2.954a20.167,20.167,0,0,1,4.289,8.4,15.982,15.982,0,0,1,.127,8.365c-.542,1.83-1.654,2.576-3.485,2.135a25.684,25.684,0,0,1-8.3-3.028c-3.155-2.047-5.45-4.637-6.306-8.366a8.1,8.1,0,0,0-.333-1.224c-.508-1.248-1.295-1.53-2.524-.891-1.75.909-3.519,1.79-5.221,2.783a54.727,54.727,0,0,1-15.854,6.312c-3.416.75-7,.759-10.5,1.083-.417.039-.846-.068-1.267-.059-1.372.028-1.738.381-1.775,1.769-.04,1.48-.01,2.963-.057,4.443a75.212,75.212,0,0,1-2.4,17.145,21.722,21.722,0,0,1-6,10.034,94.008,94.008,0,0,1-15.448,12.118c-4.212,2.674-8.779,4.79-13.2,7.133-1.433.76-2.872,1.52-4.358,2.164a99.017,99.017,0,0,1-17.929,5.585,57.641,57.641,0,0,1-13,1.369c-7.344-.046-14.3-1.724-20.419-5.909a29.33,29.33,0,0,1-9.014-9.39c-2.439-4.2-4.9-8.422-5.776-13.3a26.363,26.363,0,0,1-.54-4.185c-.093-5.855-.139-11.724,1.2-17.474.7-3.012,1.585-5.983,2.477-8.945.222-.738.568-1.9,1.662-1.455,1.027.414.494,1.438.307,2.241-.913,3.914-1.959,7.8-2.7,11.748a23.778,23.778,0,0,0,1.95,14.028,29.906,29.906,0,0,0,5.787,9.256,31.528,31.528,0,0,0,19.936,9.644,66.512,66.512,0,0,0,20.818-1.41,92.049,92.049,0,0,0,21.81-7.915,103.876,103.876,0,0,0,17.68-10.753c3.569-2.752,7.018-5.668,10.422-8.624a7.139,7.139,0,0,0,2.439-6.454,53.663,53.663,0,0,0-4.712-17.914q-.962-2-1.974-3.976a5.211,5.211,0,0,1-.437-3.7c.609-2.535,1.244-5.065,1.846-7.6a1.859,1.859,0,0,1,1.664-1.661c.954-.087,1.319.663,1.663,1.376.489,1.016.96,2.041,1.459,3.053a6.686,6.686,0,0,0,6.2,4.068c6.644.079,13.282-.018,19.589-2.577,2.875-1.167,5.767-2.291,8.65-3.44a7.855,7.855,0,0,0,1.156-.523c.971-.586,1.08-1.286.217-2.011a40.582,40.582,0,0,0-3.373-2.541c-3.682-2.487-7.413-4.9-11.079-7.414a40.758,40.758,0,0,1-3.973-3.153c-4.39-3.888-5.312-8.7-3.831-14.224a17.033,17.033,0,0,1,17.1-12.156C317.306,180.522,319.217,180.417,321.12,180.417Zm50.262,20.665-.031-.669a9.2,9.2,0,0,0-1.646-.7c-3.652-.792-7.293-1.666-10.977-2.27-10.373-1.7-20.78-3.164-31.254-4.095a140.609,140.609,0,0,0-20.3-.472,13.481,13.481,0,0,0-3.321.57c-1.417.453-1.614,1.643-.443,2.528,1.345,1.015,2.755,1.954,4.19,2.837,6.436,3.956,12.82,7.984,18.118,13.465,1.172,1.213,2.221,2.545,3.342,3.808,1.049,1.181,1.531,1.248,2.926.524.687-.356,1.379-.708,2.1-1,6.4-2.59,12.785-5.246,19.233-7.723,5.326-2.047,10.739-3.87,16.1-5.819A17.953,17.953,0,0,0,371.382,201.082Z" transform="translate(9.476 3.695)"/><path class="a" d="M504.317,262.471a23.057,23.057,0,0,0-.313,2.4,21.058,21.058,0,0,1-2.075,8.788c-.974,2.024-1.609,2.188-3.623,1.32a24.6,24.6,0,0,1-12.99-13.286,41.761,41.761,0,0,1-1.383-4.426,15.223,15.223,0,0,0-.895-2.589,5.463,5.463,0,0,0-5.1-3.162,43.356,43.356,0,0,0-13.935,2.031,58.064,58.064,0,0,0-8.758,3.654,35.779,35.779,0,0,0-9.063,6.865c-3.5,3.575-7.036,7.12-10.5,10.734-2.2,2.29-4.249,4.715-6.433,7.017-4.559,4.8-9.076,9.652-13.772,14.319a26.665,26.665,0,0,1-12.771,7.125,13.222,13.222,0,0,1-10.9-1.944c-7.1-4.8-9.476-11.829-9.283-19.954a44.224,44.224,0,0,1,2.8-13.628c1.286-3.648,2.608-7.286,4.031-10.881.8-2.017,1.837-3.94,2.774-5.9a1.907,1.907,0,0,1,.438-.717c.464-.353,1.072-.964,1.466-.863.8.206.518,1.014.323,1.608-.657,2-1.34,4-2.019,5.992-1.694,4.989-3.522,9.939-5.042,14.98a35.3,35.3,0,0,0-1.562,11.059,10.94,10.94,0,0,0,3.449,7.708c2.551,2.565,5.831,2.63,9.094,2.02,5.454-1.021,9.788-4.14,13.875-7.707,6.018-5.255,11.257-11.268,16.766-17.02,3.656-3.817,7.27-7.688,11.111-11.314a92.155,92.155,0,0,1,16.72-12.547,32.642,32.642,0,0,1,6.363-2.828,44.01,44.01,0,0,1,17.707-2.31,12.287,12.287,0,0,1,2.084.319,2.2,2.2,0,0,0,2.433-.778c1.359-1.5,1.628-1.458,3.308-.205,3.109,2.318,6.123,4.787,9.38,6.878a65.806,65.806,0,0,0,14.086,6.672c4.965,1.723,10.123,2.537,15.19,3.74a90.39,90.39,0,0,0,10.7,1.371c9.04,1.029,18.077,2.087,27.127,3.032,5.4.564,10.816,1,16.233,1.385,8.3.585,16.609,1.238,24.925,1.567,22.495.89,45,1.574,67.514,1.482,13.9-.056,27.812.092,41.705-.3,14.244-.4,28.475-1.28,42.706-2.063,7.113-.392,14.229-.88,21.316-1.6,11.932-1.211,23.823-2.86,35.766-3.905,8.526-.745,16.921-2.257,25.358-3.514,7.88-1.173,15.69-2.814,23.541-4.193,7.707-1.354,15.38-2.851,22.947-4.867,7.357-1.96,14.76-3.75,22.082-5.825,4.063-1.152,8-2.733,12-4.126.332-.116.643-.3.978-.4,1.531-.444,2.346.259,2.1,1.828-.161,1.043-.43,2.072-.553,3.119-.668,5.7,1.321,8.192,6.022,9.661a22.482,22.482,0,0,0,17.094-1.305c5.045-2.489,8.826-6.479,12.462-10.629,1.023-1.167,2-2.379,3.091-3.475.324-.325,1.142-.594,1.424-.411.343.222.46.945.485,1.46a4.4,4.4,0,0,1-.329,1.436c-1.3,4.219.125,7.707,3.185,10.5,1.6,1.46,3.843,1.641,6.015,1.44,3.824-.354,6.916-2.2,9.728-4.683a27.328,27.328,0,0,0,5.744-7.527q1.021-1.853,2.045-3.7a1.533,1.533,0,0,1,2.1-.874c.9.387.815,1.188.724,2a21.5,21.5,0,0,0-.3,3.759,9.586,9.586,0,0,0,8.392,8.939,16.706,16.706,0,0,0,9.084-1.421,9.807,9.807,0,0,0,2.531-1.857,3.655,3.655,0,0,0,1.029-4.071,31.517,31.517,0,0,0-1.558-3.692c-1.745-3.617-3.705-7.142-5.247-10.842-1.377-3.306-2.279-6.808-3.443-10.207-1.635-4.776-2.089-9.776-2.9-14.71a12.721,12.721,0,0,0-1.156-4.032,6.384,6.384,0,0,1-.191-5.7c.652-1.712,1.412-3.385,2.167-5.055.739-1.635,1.565-1.789,2.544-.37,3.206,4.64,6.351,9.322,9.5,14a4.266,4.266,0,0,1,.656,1.548c.094.507.14,1.36-.122,1.52a2.46,2.46,0,0,1-1.731.1,10.961,10.961,0,0,1-1.663-.9,14,14,0,0,0-1.618-.513,10.734,10.734,0,0,0,.186,1.84c.47,1.551,1.033,3.073,1.518,4.62,2.128,6.792,4.333,13.563,6.331,20.394,1.5,5.128,2.149,10.372.891,15.681-1.272,5.373-3.418,10.3-7.488,14.2-3.164,3.028-7.017,3.464-11.046,2.542-4.938-1.13-8-4.5-9.995-8.989a16.614,16.614,0,0,0-.932-2.128,2.331,2.331,0,0,0-1.228-.932c-.17-.049-.655.613-.832,1.022a31.387,31.387,0,0,1-4.462,7.877,16.185,16.185,0,0,1-9.041,5.518c-5.632,1.28-12.056-2.546-13.712-8.05-.385-1.282-.649-2.6-1.083-3.866-.163-.472-.616-1.109-1-1.16-.367-.049-1,.485-1.21.913-1.172,2.425-3.3,3.971-5.079,5.86a33.873,33.873,0,0,1-7.342,5.649,19.768,19.768,0,0,1-15.488,2.174c-4.753-1.137-9-5.987-9.075-10.284a34.89,34.89,0,0,0-.379-3.788c-.2-1.563-.783-1.975-2.293-1.526q-4.968,1.477-9.909,3.046c-7.928,2.517-15.861,5.009-23.994,6.816-7.708,1.711-15.361,3.683-23.1,5.242-8.711,1.756-17.479,3.233-26.24,4.727-6.049,1.032-12.123,1.929-18.2,2.811-5.653.82-11.309,1.638-16.985,2.282-9.32,1.06-18.638,2.27-27.992,2.881-11.539.753-23.07,1.654-34.615,2.348-24.4,1.467-48.813,1.207-73.225,1.118q-16.618-.059-33.233-.529c-11.849-.317-23.707-.6-35.536-1.324-13.8-.841-27.588-1.971-41.349-3.3-7.151-.691-14.239-2.06-21.348-3.171a164.441,164.441,0,0,1-20.584-4.819C508.494,264.131,506.622,263.318,504.317,262.471Zm-6.644-3.7c-.635-1.317-1.183-2.595-1.877-3.788a1.3,1.3,0,0,0-1.211-.413,1.362,1.362,0,0,0-.467,1.228,24.332,24.332,0,0,0,1.434,3.72,1.339,1.339,0,0,0,1.212.455C497.1,259.876,497.3,259.3,497.673,258.771Z" transform="translate(21.27 3.807)"/><path class="a" d="M26.792,249.882c1.012,1.04.626,2.136.41,3.238-1.233,6.287-2.555,12.559-3.628,18.873a32.3,32.3,0,0,0-.114,12,12.563,12.563,0,0,0,3.7,6.721c2.648,2.561,5.848,2.761,9.082,1.979a38.139,38.139,0,0,0,6.847-2.711c2.762-1.274,4.646-3.635,6.619-5.83,3.768-4.191,7.516-8.4,11.155-12.7a138.426,138.426,0,0,1,14.546-14.724c3.336-2.921,6.928-5.561,10.512-8.18,1.4-1.026,1.759-1.6,1.062-3.375-2.435-6.2-1.9-12.464-.343-18.7a52.533,52.533,0,0,1,2.692-7.767,28.9,28.9,0,0,1,5.248-8.124,5.423,5.423,0,0,1,.446-.451c3.8-3.338,5.812-2.927,8.753.451,2.725,3.13,5.25,6.433,7.959,9.578a41.251,41.251,0,0,0,12.062,9.81c.562.3,1.213.843,1.674.2a2.06,2.06,0,0,0-.131-1.69,33.209,33.209,0,0,1-2.916-20.8c1.226-6.622,5.252-11.282,12.039-13.419,5.526-1.742,11.04-1.213,16.564-.691,8.775.828,17.55,1.731,26.281,2.931a124.158,124.158,0,0,0,21.96.759c1.477-.059,2.946-.3,4.423-.395,1.764-.119,2.325.431,2.165,2.19a21.376,21.376,0,0,1-.543,2.909c-.449,1.923-.993,3.824-1.389,5.757a2.833,2.833,0,0,1-2.552,2.374,66.98,66.98,0,0,0-8.941,2.481,33.642,33.642,0,0,0-6.048,3.438c-4.2,2.712-8.394,5.453-12.511,8.3-3.185,2.2-6.174,4.69-9.391,6.839-5.387,3.6-10.622,7.454-16.537,10.217-3.066,1.432-6.043,3.051-9.417,3.7a2.92,2.92,0,0,0-2.588,2.9c-.065.879.051,2.035-1.162,2.2-1.279.178-1.379-.977-1.576-1.845a4.046,4.046,0,0,0-2.95-2.986,74.676,74.676,0,0,1-9.957-4.094,49.932,49.932,0,0,1-8.366-6.034c-3.81-3.275-6.692-7.419-9.778-11.355-.261-.334-.487-.7-.764-1.014-1.355-1.546-2.647-1.83-4.231-.493a16.459,16.459,0,0,0-3.762,4.228,51.629,51.629,0,0,0-3.522,7.894c-.96,2.653.522,6.386,2.836,8.063a2.369,2.369,0,0,0,2.579.181,71.557,71.557,0,0,1,6.788-2.887,36.894,36.894,0,0,1,7.188-1.592,7.843,7.843,0,0,1,6.06,2.027,17.693,17.693,0,0,1,5.5,7.812,31.5,31.5,0,0,1,1.669,10.783,12.55,12.55,0,0,1-4.937,9.86,6.264,6.264,0,0,1-4.109,1.442,15.662,15.662,0,0,1-9.546-2.871c-.972-.7-2.055-1.247-3.005-1.971a26.969,26.969,0,0,1-6.5-6.6c-1.11-1.705-1.612-1.8-3.249-.7-1.695,1.137-3.343,2.353-4.948,3.616-2.6,2.048-5.22,4.089-7.706,6.277-1.792,1.577-3.41,3.36-5.051,5.1-2.218,2.356-4.364,4.78-6.574,7.143-5.2,5.559-10.358,11.155-15.651,16.622a22.169,22.169,0,0,1-10.38,5.88c-4.091,1.095-7.87-.089-11.229-2.4-5.775-3.97-8.538-9.792-9.452-16.552a48.088,48.088,0,0,1,1.567-18.641c1.133-4.364,2.22-8.74,3.328-13.111C25.282,251.056,25.494,250.147,26.792,249.882Zm118.484-44.476c-2.665.13-5.34.159-7.993.412-5.387.512-9.106,3.4-11.4,8.26a3.2,3.2,0,0,0,.057,3.2c2.36,4.249,4.734,8.493,6.969,12.81A3.216,3.216,0,0,0,136.691,232c.625-.1,1.247-.225,1.866-.357a35.5,35.5,0,0,0,10.457-3.88c4.637-2.667,9.384-5.147,13.962-7.909,4.4-2.65,8.636-5.556,12.944-8.353a8.346,8.346,0,0,0,1.211-.844c.682-.644.528-1.295-.351-1.576a5.845,5.845,0,0,0-1.042-.151c-3.354-.417-6.719-.761-10.06-1.262C158.913,206.655,152.139,205.766,145.277,205.406Zm-34.546,51.341c.9-.106,1.735-.2,2.569-.31a2.107,2.107,0,0,0,.6-.2,1.576,1.576,0,0,0,.471-2.836,4.426,4.426,0,0,0-.848-.618c-3.163-1.789-6.4-1.119-9.584-.144a1.081,1.081,0,0,0-.126,2.082C105.978,255.883,108.225,256.9,110.731,256.747Z" transform="translate(0 4.439)"/><path class="a" d="M312.087,252.665a3.218,3.218,0,0,1,.181,3.029c-.842,2.766-1.663,5.547-2.7,8.244-2.2,5.738-4.309,11.5-5.259,17.6-.669,4.289-.373,8.39,2.557,12.021a8.732,8.732,0,0,0,6.4,3.255,17.54,17.54,0,0,0,9.138-2.2c4.473-2.2,7.748-5.772,10.926-9.493,3.525-4.127,7.028-8.3,10.862-12.126a72.049,72.049,0,0,1,8.593-6.823c6.55-4.79,14.078-7.7,21.416-10.971,4.314-1.923,8.664-3.794,12.847-5.976a15.32,15.32,0,0,0,7.785-8.817,14.227,14.227,0,0,0,.549-6.053c-.631-6.6-1.319-13.19-1.964-19.785-.906-9.264-1.818-18.527-2.68-27.8-.844-9.057-1.574-18.125-2.459-27.179-.7-7.157-1.6-14.3-2.316-21.453a9.338,9.338,0,0,1,.347-3.719c1.279-3.957,2.723-7.861,4.121-11.778a6.1,6.1,0,0,1,.672-1.312c.981-1.478,1.585-1.632,3.164-.8a101.14,101.14,0,0,1,13.555,8.6A141,141,0,0,1,423.2,142.362a172.915,172.915,0,0,1,13.125,14.626,94.175,94.175,0,0,1,9.823,15.743,3.123,3.123,0,0,1-.338,3.717c-.964,1.213-1.892,2.458-2.857,3.671-1.245,1.563-2.022,1.538-2.934-.27-2.6-5.148-6.232-9.579-9.909-13.918-3.546-4.184-7.653-7.888-11.4-11.91A101.281,101.281,0,0,0,402.887,140.7c-1.95-1.384-4.053-2.553-6.106-3.787a2.521,2.521,0,0,0-1.2-.345c-.743-.012-1.186.347-1.1,1.185.943,8.969,1.943,17.933,2.794,26.912.6,6.317.986,12.653,1.482,18.979.177,2.251.413,4.5.593,6.746.7,8.717,1.248,17.447,2.125,26.146a72.127,72.127,0,0,1-.444,17.711,59.65,59.65,0,0,1-4.246,14.581,26.992,26.992,0,0,1-7.9,10.8,24.546,24.546,0,0,1-4.95,3.171c-5.627,2.618-11.363,5-16.993,7.61-4.988,2.315-10.007,4.68-14.274,8.193a116.093,116.093,0,0,0-9.507,9.01c-3.773,3.9-7.351,7.991-11.017,11.994a24.726,24.726,0,0,1-9.414,6.657,13.035,13.035,0,0,1-14.009-2.387c-7.114-6.065-8.954-13.9-7.433-22.757a67.805,67.805,0,0,1,4.251-15.256c1.741-4.076,3.67-8.072,5.548-12.09A5.7,5.7,0,0,1,312.087,252.665Z" transform="translate(16.477 0.156)"/><path class="a" d="M273.159,211.5a90.355,90.355,0,0,1-2.292,18.849,53.725,53.725,0,0,1-7.658,17.522,56.242,56.242,0,0,1-5.7,6.794c-6.957,7.737-15.956,11.615-25.933,13.645-4.422.9-8.821,1.908-13.236,2.838a8.383,8.383,0,0,1-2.3.223,1.393,1.393,0,0,1-1.064-.75,1.448,1.448,0,0,1,.684-1.12c1.213-.71,2.538-1.231,3.744-1.952,8.17-4.876,16.251-9.9,24.5-14.639a68.229,68.229,0,0,0,14.04-11.123c4.208-4.183,7.956-8.776,10.127-14.442a24.443,24.443,0,0,0,1.622-9.118,71.638,71.638,0,0,0-4.364-24.88c-.952-2.487-2.247-4.841-3.378-7.259A75.222,75.222,0,0,0,251.582,169.7c-3.881-4.649-7.959-9.142-12.094-13.57A113.464,113.464,0,0,0,224.1,142.586a93.567,93.567,0,0,0-8.606-5.356,2.362,2.362,0,0,0-1.928-.084c-.3.145-.325,1.115-.278,1.7.359,4.5.758,9,1.159,13.491.634,7.1,1.3,14.191,1.917,21.289q1.591,18.339,3.139,36.683c.377,4.426,1.109,8.861,1.027,13.279-.137,7.272-1,14.5-3.816,21.327a70.392,70.392,0,0,1-3.077,7.173,27.333,27.333,0,0,1-13.93,12.11c-3.375,1.42-6.685,2.995-10.005,4.543-1.693.789-2.416.437-2.8-1.462-.588-2.912.036-5.761.484-8.61a2.821,2.821,0,0,1,1.927-2.089q6.336-2.677,12.663-5.372a24.438,24.438,0,0,0,10.484-8.3,8.246,8.246,0,0,0,1.383-5.437q-.424-7.713-1.046-15.413-.913-11.073-1.989-22.13c-.683-6.878-1.548-13.737-2.235-20.614-1.08-10.809-2.081-21.625-3.108-32.439-.327-3.439-.672-6.878-.911-10.324a7.277,7.277,0,0,1,.375-2.9c1.438-3.977,2.948-7.929,4.5-11.863.744-1.883,1.659-2.036,3.474-1.131a96.262,96.262,0,0,1,16.232,10.683c3.881,3.037,7.594,6.312,11.189,9.687a137.919,137.919,0,0,1,12.588,13.408,91.356,91.356,0,0,1,12,19.124,84.956,84.956,0,0,1,6.074,17.77A96.75,96.75,0,0,1,273.159,211.5Z" transform="translate(9.784 0.162)"/><path class="a" d="M490.027,204.867a11.082,11.082,0,0,0-.532,1.674,32.133,32.133,0,0,1-6.549,14.716,36.441,36.441,0,0,1-5.807,5.5c-1.341,1.121-2.406.606-2.576-1.174-.275-2.876-.413-5.765-.591-8.65a2.449,2.449,0,0,1,1.536-2.317c1.451-.856,2.91-1.714,4.274-2.7,4.622-3.338,6.672-8.052,7.052-13.6a73.319,73.319,0,0,0-1.19-19.166,116.213,116.213,0,0,0-3.244-11.6,7.973,7.973,0,0,1-.2-4.564c.7-2.588,1.317-5.2,2.069-7.769.281-.96.42-2.321,1.751-2.35,1.241-.028,1.631,1.172,2.039,2.152,3.2,7.682,4.71,15.765,5.873,23.958.951,6.695,1.912,13.413,4.279,19.81a56.641,56.641,0,0,0,2.483,6.267c3.988,7.773,12.114,9.194,19.055,7.084a6.506,6.506,0,0,0,4.056-4.059,3.8,3.8,0,0,0-.152-2.625c-.976-2.337-2.137-4.6-3.239-6.883-2.692-5.588-5.341-11.187-6.753-17.279-.507-2.191-1.279-4.323-1.765-6.519a54.87,54.87,0,0,1-1.1-6.651,17.221,17.221,0,0,0-1.541-6.325,4.677,4.677,0,0,1-.3-3.875c.8-2.261,1.521-4.548,2.352-6.8.509-1.379,1.487-1.588,2.347-.427,1.967,2.658,3.844,5.385,5.694,8.127,1.5,2.217,2.9,4.5,4.352,6.746.153.235.474.415.516.655a3.046,3.046,0,0,1,.056,1.732,1.351,1.351,0,0,1-1.877.408,19.8,19.8,0,0,0-2.042-1.082,1.642,1.642,0,0,0-1.324.236c-.2.148-.159.791-.043,1.153.9,2.82,1.79,5.646,2.784,8.433,2.085,5.842,4,11.718,5.52,17.748a41.328,41.328,0,0,1,.884,14.045,24.912,24.912,0,0,1-4.722,12.949,11.29,11.29,0,0,1-7.721,4.694,20.807,20.807,0,0,1-11-1.2c-3.938-1.619-6.612-4.674-8.876-8.156a38.848,38.848,0,0,1-4.315-10.523,15.281,15.281,0,0,0-.8-1.828Z" transform="translate(26.633 1.911)"/><path class="a" d="M53.814,119.927a3.144,3.144,0,0,1-.182,3.266c-3.447,7.063-5.742,14.562-8.208,21.982-2.062,6.208-4.154,12.414-5.674,18.8q-2.3,9.683-3.743,19.512c-.134.906-.331,1.8-.48,2.708a28.3,28.3,0,0,0-.5,3.345,48.518,48.518,0,0,0,2.559,18.321,21.767,21.767,0,0,0,2.648,4.8,4.568,4.568,0,0,0,5.019,1.9,7.149,7.149,0,0,0,4.618-2.7c1.1-1.449,2.629-2.619,3.54-4.165,1.6-2.72,2.878-5.634,4.3-8.46.359-.711.457-1.956,1.542-1.667,1.265.336.646,1.5.5,2.337-.765,4.374-1.482,8.759-2.379,13.107a37.039,37.039,0,0,1-1.686,4.76,54.423,54.423,0,0,1-6.7,12.687,12.192,12.192,0,0,1-6.588,5.071c-3.731,1.078-7.193.439-9.949-2.811-2.856-3.37-4.239-7.454-5.138-11.7-1.822-8.607-1.264-17.256-.376-25.908a116.814,116.814,0,0,1,3.776-18.2c2.022-7.558,4.25-15.061,6.42-22.58.291-1.011.745-1.974,1.131-2.958,1.077-2.755,2.194-5.5,3.228-8.266a127.517,127.517,0,0,1,7.294-16.413c.971-1.786,2.083-3.5,3.227-5.183A10.067,10.067,0,0,1,53.814,119.927Z" transform="translate(0.369 0.15)"/><path class="a" d="M471.625,208.733c.373,8.63.6,14.759.92,20.881.132,2.53.468,5.049.715,7.573.176,1.807-.332,2.5-2.1,2.689a33.332,33.332,0,0,1-3.378.182c-1.757.01-2.214-.468-2.3-2.255-.394-7.674-.775-15.349-1.187-23.023-.865-16.124-1.792-32.245-2.6-48.374-.322-6.407-.294-12.832-.622-19.239a55.994,55.994,0,0,0-1.233-8.766,15.361,15.361,0,0,1-.115-7.316c.872-3.265,1.765-6.525,2.75-9.758a2,2,0,0,1,1.318-1.067c.257-.058.889.625,1.028,1.071,1.431,4.643,2.806,9.3,4.18,13.964,1.3,4.394,2.6,8.787,3.842,13.2.7,2.508,1.317,5.043,1.9,7.583.2.874.416,1.993-.686,2.4-1.038.379-1.664-.5-2.185-1.279-.547-.818-1-1.711-1.619-2.466A1.415,1.415,0,0,0,469,154.3c-.293.115-.537.789-.514,1.2q.929,16.678,1.929,33.354C470.857,196.314,471.323,203.774,471.625,208.733Z" transform="translate(25.774 0.17)"/><path class="a" d="M451.437,201.666a64.768,64.768,0,0,1,2.354-17.965,15.121,15.121,0,0,0,.458-1.844c.282-2.155-.8-3.226-2.819-2.529a11.487,11.487,0,0,0-3.774,2.223,41.576,41.576,0,0,0-7.528,9.329c-2.156,3.47-4.35,6.919-6.444,10.428-1.187,1.987-2.178,4.09-3.3,6.114a52.593,52.593,0,0,1-11.364,14.587A32.791,32.791,0,0,1,405.9,228.59c-1.63.449-3.252.927-4.887,1.359-.874.231-2,.655-2.433-.428s.628-1.535,1.479-1.932A57.2,57.2,0,0,0,416.424,216.1a52.907,52.907,0,0,0,5.578-7.4c4.393-6.324,7.769-13.242,11.51-19.947,2.92-5.235,5.928-10.437,9.924-14.94,2.7-3.042,5.377-6.178,9.4-7.658,3.7-1.361,7.424,1.066,7.242,4.982a51.736,51.736,0,0,1-1.07,7.738,124.879,124.879,0,0,0-2.69,18.616A19.927,19.927,0,0,0,460.31,211.2a11.021,11.021,0,0,0,2.837,2.473,4.684,4.684,0,0,1,2.395,4.569c-.069,2.316.173,4.642.278,6.964a8.818,8.818,0,0,1,.046,1.474c-.182,1.432-.882,1.837-2.168,1.227a17.8,17.8,0,0,1-9.422-9.493,37.533,37.533,0,0,1-2.837-14.207C451.429,203.358,451.437,202.512,451.437,201.666Z" transform="translate(22.206 2.838)"/><path class="a" d="M122.957,278.391c-.253-4.685,1.4-8.871,2.51-13.158,1.517-5.842,4.492-11.1,6.757-16.638a16.24,16.24,0,0,1,1.582-2.744.948.948,0,0,1,.872-.294,1.039,1.039,0,0,1,.433.841,5.3,5.3,0,0,1-.377,1.422c-1.686,4.855-3.487,9.674-5.039,14.571a91.334,91.334,0,0,0-2.877,11.036,18.817,18.817,0,0,0,.513,10.033,9.1,9.1,0,0,0,8.841,6,22.076,22.076,0,0,0,13.285-5.394,75.019,75.019,0,0,0,9.09-9.706c2.829-3.421,5.9-6.644,8.9-9.916a12.091,12.091,0,0,1,1.992-1.558c3.511-2.481,7.021-4.967,10.566-7.4.471-.324,1.373-.665,1.671-.447a2.151,2.151,0,0,1,.759,1.75,37.218,37.218,0,0,0-.291,8.016,2.572,2.572,0,0,1-1.48,2.594c-5.831,2.858-10.1,7.61-14.566,12.1-2.53,2.548-4.9,5.257-7.335,7.9-1.433,1.553-2.963,3.03-4.265,4.686a22.6,22.6,0,0,1-10.706,7.242,11.721,11.721,0,0,1-8.3-.15c-5.855-2.313-9.268-6.778-11.24-12.627A22.211,22.211,0,0,1,122.957,278.391Z" transform="translate(6.047 7.516)"/><path class="a" d="M449.224,207.959a62.2,62.2,0,0,1-1.7,17A50.42,50.42,0,0,1,440.5,242.31c-4.011,5.928-8.629,11.343-14.753,15.257a45.96,45.96,0,0,1-13.79,5.792c-5.679,1.41-11.412,2.6-17.13,3.85a9.785,9.785,0,0,1-2.518.182,1.172,1.172,0,0,1-.892-.666,1.259,1.259,0,0,1,.486-1.035c.813-.552,1.72-.961,2.571-1.458,3.227-1.882,6.472-3.733,9.661-5.673,7.163-4.357,14.464-8.517,21.385-13.233a53.7,53.7,0,0,0,12.152-11.376,62.083,62.083,0,0,0,5.362-7.825c2.472-4.42,3.02-9.183,2.949-14.1a56.232,56.232,0,0,0-3.018-17.652,4.176,4.176,0,0,1,.675-4.547c.6-.663.843-1.637,1.4-2.35a1.785,1.785,0,0,1,1.378-.684c.372.072.813.734.9,1.2A96.232,96.232,0,0,1,449.224,207.959Z" transform="translate(21.791 4.071)"/><path class="a" d="M115.5,284.2a24.424,24.424,0,0,1-1.229,3.576c-1.4,2.686-2.863,5.346-4.462,7.915-1.26,2.023-2.176,1.994-4.133.561-4.04-2.956-8.132-5.839-12.226-8.72-.994-.7-1.549-.438-1.969.9a32.221,32.221,0,0,1-4.9,9.3c-1.186,1.626-1.644,1.606-3.251.452-3.264-2.343-6.585-4.606-9.878-6.909q-1.212-.848-2.394-1.739a1.922,1.922,0,0,1-.573-2.626q2.376-4.953,4.754-9.9c.152-.319.3-.641.483-.942.98-1.63,1.7-1.9,3.261-.9,2.913,1.858,5.807,3.757,8.622,5.76a51.314,51.314,0,0,1,4.32,3.676,1.1,1.1,0,0,0,1.809-.091,9.181,9.181,0,0,0,.941-1.64c1.319-2.652,2.578-5.336,3.949-7.961,1.059-2.025,1.719-2.253,3.671-.988,3.906,2.528,7.733,5.178,11.559,7.826A3.031,3.031,0,0,1,115.5,284.2Z" transform="translate(2.955 9.135)"/><path class="a" d="M75.179,141.6q10.022.708,20.043,1.42c1.98.143,2.589,1.037,2.03,2.954a4.683,4.683,0,0,1-2.806,2.98c-1.478.666-2.98,1.282-4.448,1.969-3.7,1.732-7.381,3.5-11.081,5.233a2.732,2.732,0,0,0-1.736,1.971c-.224,1.089-.944,1.451-2.017,1.418a2.681,2.681,0,0,0-1.588.358,1.78,1.78,0,0,0-.691,1.382c.058.365.72.831,1.169.9.967.145,1.97.021,2.955.084,4.922.312,9.843.628,14.762,1a21.322,21.322,0,0,1,3.537.588,6.4,6.4,0,0,1,4.615,4.492,13.12,13.12,0,0,1,.243,7.644C98.6,182.972,94.1,187.3,88.116,190.618a18.339,18.339,0,0,1-14.128,1.555,11.375,11.375,0,0,1-8.557-8.495,27.5,27.5,0,0,1,1.6-18.761c.253-.576.371-1.211.619-1.79a6.1,6.1,0,0,1,.885-1.633c1.021-1.161,2.126-2.25,3.2-3.362.915-.945.98-1.408,0-2.268-1.322-1.161-2.749-2.2-4.124-3.3a20.985,20.985,0,0,1-1.948-1.623A5.178,5.178,0,0,1,66.383,143a9.406,9.406,0,0,1,5.205-1.525c1.194-.065,2.4-.013,3.594-.013Zm4.765,46.6c4.864-.255,8.911-2.345,12.756-4.911a17.15,17.15,0,0,0,5.32-5.628,5.758,5.758,0,0,0-.053-6.536,6.3,6.3,0,0,0-4.845-3.01c-3-.387-6.017-.764-9.038-.931-4.255-.234-8.42-.648-12.241-2.791-1.224-.686-1.865-.395-2.566.865a16.9,16.9,0,0,0-1.065,2.3c-1.5,4.014-2.473,8.1-1.352,12.4a9.062,9.062,0,0,0,6.3,6.821C75.359,187.452,77.679,187.738,79.944,188.2Zm7.468-40.5-.13-.493a9.141,9.141,0,0,0-1.73-.405c-5.276-.211-10.554-.386-15.831-.564a5.016,5.016,0,0,0-1.262.067c-.874.2-1.137.863-.592,1.579a8.087,8.087,0,0,0,1.24,1.136c1.815,1.547,3.65,3.067,5.444,4.637a1.753,1.753,0,0,0,2.477.08,37.517,37.517,0,0,1,8.859-4.876A7.156,7.156,0,0,0,87.412,147.7Z" transform="translate(2.599 1.412)"/><path class="a" d="M978.681,282.149a28.124,28.124,0,0,1-1.071,3.2,93.443,93.443,0,0,1-7.021,12.991c-.2.29-.381.594-.594.873-1.2,1.581-1.913,1.6-3.484.4q-3.6-2.755-7.324-5.347c-3.463-2.415-6.981-4.75-10.463-7.137-1.1-.754-1.26-1.388-.615-2.721.949-1.961,1.99-3.878,2.952-5.834,1.551-3.157,3.052-6.339,4.606-9.495,1.106-2.245,2.275-2.54,4.373-1.127q7.609,5.121,15.2,10.273a12.4,12.4,0,0,1,2.285,1.864A10.208,10.208,0,0,1,978.681,282.149Z" transform="translate(54.416 8.78)"/><path class="a" d="M282.227,135.32c.378-1.171.616-1.849.816-2.539,1-3.445,1.9-6.921,3.021-10.327a9.014,9.014,0,0,1,3.225-4.373c1.227-.922,1.809-.931,3.08-.148a6.144,6.144,0,0,1,2.773,6.566,1.974,1.974,0,0,1-1.386,1.7,1.878,1.878,0,0,1-2.011-.819c-1.643-1.9-2.983-1.8-4.083.515a26.663,26.663,0,0,0-1.5,4.83c-.93,3.612-1.791,7.242-2.688,10.863-.392,1.578-.111,1.95,1.277,2.922,2.068,1.449,4.044,3.033,6.008,4.624a3.082,3.082,0,0,1,.9,3.479c-.605,2.111-1.557,3.877-3.958,4.514-2.3.612-4.548,1.457-6.817,2.2a7.468,7.468,0,0,0-.792.293c-2.147,1-2.428,1.74-1.784,4.012,2.453,8.662,4.065,17.445,3.679,26.5-.054,1.267-.15,2.536-.315,3.793a9.889,9.889,0,0,1-.592,1.779c-1.325-.6-1.138-1.576-1.174-2.445-.139-3.307-.1-6.632-.445-9.917-.325-3.072-1.025-6.107-1.619-9.147-.69-3.53-1.6-7.023-2.128-10.575a9.6,9.6,0,0,1,2.826-8.876,14.667,14.667,0,0,1,3.068-1.83c1.256-.682,1.579-1.177,1.1-1.843a1.818,1.818,0,0,0-2.48-.213c-.433.34-.679.931-1.125,1.239a5.4,5.4,0,0,1-1.466.484c-.111-.447-.423-.962-.3-1.328a35.806,35.806,0,0,1,2.3-5.872,5.134,5.134,0,0,0,.561-4.55,64.048,64.048,0,0,0-3.988-9.774c-.772-1.481-1.182-1.815-2.641-1.318a3.405,3.405,0,0,1-3.494-.828,11.116,11.116,0,0,1-1.065-1.03c-1.445-1.512-1.516-2.05-.4-3.9.582-.965,1.229-1.893,1.873-2.819.69-.994,1.572-.971,2.611-.539a11.28,11.28,0,0,1,6.444,6.892c.719,1.98,1.179,4.05,1.791,6.069A13.246,13.246,0,0,0,282.227,135.32Z" transform="translate(14.544)"/><path class="a" d="M114.067,198.115a12.06,12.06,0,0,1-.395-2.243c.155-7.254-1.252-14.3-2.744-21.341-.643-3.032-1.238-6.078-1.737-9.137-.557-3.411.794-6.216,3.116-8.6a5.194,5.194,0,0,1,1.641-.885c.512-.229,1.079-.343,1.585-.583,1.039-.494,1.284-1.052.852-1.782a1.5,1.5,0,0,0-2.187-.527c-.578.377-.992,1-1.555,1.407a6.821,6.821,0,0,1-1.412.613c-.115-.506-.42-1.058-.312-1.511.489-2.045.831-4.156,2.309-5.832a4.036,4.036,0,0,0,.635-4.379c-1.257-3.215-2.53-6.427-3.915-9.588-.88-2.01-1.18-2-3.411-1.555a3.171,3.171,0,0,1-2.167-.376,10.737,10.737,0,0,1-2.6-2.443,2.265,2.265,0,0,1-.145-1.935,24.531,24.531,0,0,1,2.209-3.839c.677-.981,1.542-1.072,2.836-.569a10.455,10.455,0,0,1,5.167,4.779c1.485,2.51,2.806,5.055,2.785,8.082a2.349,2.349,0,0,0,.324.99c.083.164.3.259.5.418.955-.27.979-1.114,1.162-1.83.715-2.8,1.343-5.616,2.136-8.39a11.974,11.974,0,0,1,3.931-6.368c1.214-.962,1.974-1.077,3.252-.226,2.081,1.387,3.57,3.765,2.5,6.761-.6,1.668-1.551,1.906-2.776.672-.2-.2-.355-.44-.557-.635-1.568-1.511-2.689-1.414-3.536.614a60.177,60.177,0,0,0-2.387,7.2c-.56,2.034-.832,4.145-1.31,6.2a19.835,19.835,0,0,1-.988,2.989c-.541,1.329-.43,1.551.829,2.336,1.843,1.15,3.626,2.4,5.42,3.624a3.758,3.758,0,0,1,.735.758c2.565,3.148,1.288,7.249-2.622,8.5-2.477.792-5.005,1.475-7.39,2.489-2.315.985-2.46,1.569-1.962,3.965.934,4.481,1.948,8.948,2.794,13.446a69.4,69.4,0,0,1,.679,16.237C115.318,196.477,115.437,197.494,114.067,198.115Z" transform="translate(4.789 0.148)"/><path class="a" d="M131.128,158.016c2-1.99,3.254-4.679,5.914-6.033a17.331,17.331,0,0,1,2.823-.868c5.053-1.55,10.109-3.09,15.155-4.662,2.621-.817,5.211-1.738,7.839-2.532,3.305-1,6.629-1.932,9.954-2.863,6.583-1.843,13.173-3.661,19.759-5.5,1.834-.511,3.657-1.061,5.492-1.567.688-.191,1.549-.381,1.845.434a2.108,2.108,0,0,1-.433,1.68,12.748,12.748,0,0,1-6.956,4.817c-7.158,1.861-14.23,4.046-21.337,6.105-7.175,2.079-14.357,4.135-21.519,6.262-2.768.822-5.484,1.819-8.23,2.715-2.67.872-5.341,1.746-8.031,2.553a8.55,8.55,0,0,1-1.946.128Z" transform="translate(6.528 0.965)"/><path class="a" d="M374.791,147.006a3.77,3.77,0,0,1-.356.867c-1.524,2.164-3.252,3.951-6,4.7-7.2,1.96-14.353,4.122-21.534,6.172-6.295,1.8-12.617,3.5-18.9,5.345-3.375.991-6.68,2.216-10.027,3.3-2.277.736-4.578,1.4-6.862,2.109-.939.292-1.848.7-2.8.9a1.949,1.949,0,0,1-1.465-.315c-.184-.149-.074-1.025.188-1.3,2.1-2.209,3.8-4.771,7.208-5.526,3.348-.742,6.516-2.264,9.809-3.295,4.771-1.493,9.585-2.854,14.383-4.266s9.584-2.824,14.381-4.221c1.823-.531,3.651-1.048,5.49-1.519,3.683-.944,7.379-1.84,11.062-2.783,1.365-.349,2.7-.8,4.066-1.158C374.158,145.82,374.694,146.038,374.791,147.006Z" transform="translate(16.827 1.676)"/><path class="a" d="M177.217,178.014c-.685,1.143-1.234,2.2-1.915,3.163a7.587,7.587,0,0,1-3.967,2.682,3.8,3.8,0,0,1-3.785-.7,7.534,7.534,0,0,1-3.112-5.542c-.1-2.112-.216-4.224-.262-6.337a4.749,4.749,0,0,0-1.1-3.318,2.77,2.77,0,0,1-.152-3.686c.462-.707.878-1.445,1.338-2.153.444-.682,1.087-1.352,1.879-1.024a2.238,2.238,0,0,1,1.131,1.585c.161,1.816.092,3.651.107,5.48.014,1.612.007,3.226.038,4.838a3.759,3.759,0,0,0,.214,1.031c1.076,3.369,3.838,4.111,6.541,1.81a6.267,6.267,0,0,0,2.2-6.259c-.366-2-.975-3.966-1.512-5.936a6.76,6.76,0,0,1,.281-4.355c.419-1.064,1.239-1.163,1.9-.264a4.137,4.137,0,0,1,.637,1.325c.95,3.392,2,6.774,1.942,10.349a5.287,5.287,0,0,0,1.186,3.3,3.5,3.5,0,0,0,3.895,1.441c1.974-.421,2.452-1.374,1.625-3.2-.667-1.473-1.372-2.928-2-4.417-.407-.97-.618-2.025-1.066-2.973-1.01-2.134-.237-4.144.309-6.173.17-.631.521-1.318,1.277-1.122a1.673,1.673,0,0,1,1.062,1.1c.322,3.39,2.037,6.29,3.227,9.362a12.43,12.43,0,0,1-1.05,11.348c-2.531,4.324-5.878,3.819-8.63.527C178.324,178.536,178.417,178.457,177.217,178.014Z" transform="translate(8.355 2.355)"/><path class="a" d="M482.824,137.841c0-.916.013-1.831,0-2.747a3.453,3.453,0,0,0-1.028-2.68,2.531,2.531,0,0,1-.662-3.1,13.743,13.743,0,0,1,2.484-3.591c.968-.978,2.128-.492,2.225.891a20.814,20.814,0,0,1-.05,5.864,9.033,9.033,0,0,0,.92,6.53c1.763,3.226,3.1,3.261,6.034.964a5.886,5.886,0,0,0,1.916-7.217,16.324,16.324,0,0,1-1.343-7.424,5.707,5.707,0,0,1,.29-1.649,1.212,1.212,0,0,1,2.284-.191,5.022,5.022,0,0,1,.562,1.575,48,48,0,0,1,1.572,10,4.568,4.568,0,0,0,5.177,4.606c2.182-.214,2.851-1.4,1.845-3.326-.488-.936-1.055-1.831-1.572-2.753a14.828,14.828,0,0,1-1.974-8.523,7.166,7.166,0,0,1,.776-2.594,1.616,1.616,0,0,1,1.282-.782,1.555,1.555,0,0,1,.927,1.148c.3,3.386,1.733,6.367,3.214,9.327,1.55,3.1,1.014,6.179.04,9.254a9.368,9.368,0,0,1-2.839,4.383,3.391,3.391,0,0,1-3.917.594,7.481,7.481,0,0,1-3.6-3.117c-.739-1.288-1.368-1.234-2.1.071a8.7,8.7,0,0,1-4.2,4.271c-3.268,1.322-6.178.207-7.319-3.148a46.4,46.4,0,0,1-1.267-6.583Z" transform="translate(27.037 0.254)"/><path class="a" d="M245.805,226.574a3.3,3.3,0,0,1-.212.938c-1.7,3.625-3.292,7.316-5.74,10.534-1.015,1.335-1.64,1.334-2.982.364-3.525-2.544-7.089-5.035-10.637-7.547-3.446-2.438-3.264-2.381-1.443-5.613,1.55-2.751,2.815-5.665,4.178-8.521,1.082-2.269,1.782-2.54,3.865-1.168,3.641,2.4,7.246,4.85,10.837,7.322C244.844,223.69,245.929,224.628,245.805,226.574Z" transform="translate(11.945 5.71)"/><path class="a" d="M466.529,298.677a6.243,6.243,0,0,1-.282-1.757c1.4-9.893,1.15-19.833.833-29.769-.146-4.579-.462-9.153-.693-13.729-.114-2.247.233-2.713,2.494-3.044a16.758,16.758,0,0,1,3.159-.138c1.471.066,1.709.314,1.828,1.751.134,1.615.269,3.236.287,4.855a126.559,126.559,0,0,1-5.589,39.413C468.266,297.225,468.158,298.379,466.529,298.677Z" transform="translate(26.179 7.791)"/><path class="a" d="M874.343,286.793a5.72,5.72,0,0,1,3.793-1.858,33.9,33.9,0,0,0,12.486-5.4c3.691-2.437,7.358-5.033,11.716-6.229a41.423,41.423,0,0,1,5.377-1.069,10.47,10.47,0,0,1,6.525,1.3,38.837,38.837,0,0,0,3.646,1.668,3.593,3.593,0,0,0,3.778-.578c1.058-.819,2.107-1.652,3.16-2.479a4.759,4.759,0,0,1,1.01-.746,1.142,1.142,0,0,1,.963.05c.2.156.218.6.227.918.005.187-.178.376-.256.571-.7,1.735.121,3.007,2.006,3.12.9.054,1.3-.491,1.368-1.275a4.775,4.775,0,0,1,1.563-3.145,1.731,1.731,0,0,1,1.445-.437c.392.16.666.823.8,1.318a2.577,2.577,0,0,1-.153,1.241,15.778,15.778,0,0,1-3.956,6.657c-1.29,1.4-2.713,1.412-4.382.379a6.112,6.112,0,0,1-.7-.468,4.82,4.82,0,0,0-5.678-.657,6.347,6.347,0,0,1-6.656-.467c-4.813-3.306-9.766-2.558-14.735-.655a59.176,59.176,0,0,0-5.85,2.918,78.636,78.636,0,0,1-8.267,4.222,44.463,44.463,0,0,1-7.817,1.6C875.415,287.353,875.009,287.041,874.343,286.793Z" transform="translate(50.112 9.019)"/><path class="a" d="M445.47,120.075a4.81,4.81,0,0,1-.844,3.238,64.574,64.574,0,0,0-5.548,15.483,11.959,11.959,0,0,0,.292,7.072,4.852,4.852,0,0,0,7.237,2.566,9.511,9.511,0,0,0,3.5-3.6,14.14,14.14,0,0,1,1.174-1.564l.532.115c.117.558.506,1.244.311,1.653-1.441,3.031-1.683,6.594-4.113,9.187a8.354,8.354,0,0,1-4.343,2.852c-4.369.907-7.965-1.094-8.834-6.135a28.484,28.484,0,0,1,.273-9.894,41.89,41.89,0,0,1,4.308-12.1c1.244-2.369,2.533-4.716,3.836-7.054C443.715,121.053,444.19,120.161,445.47,120.075Z" transform="translate(24.319 0.159)"/><path class="a" d="M334.352,297.264c.228-1.345,1.221-1.7,2.03-2.17,4.315-2.531,8.667-5,12.967-7.554A33.438,33.438,0,0,0,360.625,276.6c1.1-1.725,1.916-1.835,3.547-.588a11.632,11.632,0,0,1,4.136,6.23c.318,1.1.522,2.338,2.107,2.968.137-.8.267-1.45.357-2.108.423-3.1,1.067-6.111,3.08-8.659,1.473-1.864,3.339-1.968,4.641,0a5.9,5.9,0,0,1,.971,3.127c-.017,1.578-1.375,2.061-2.686,1.137-1.864-1.316-2.56-1.138-3.2,1.141-.931,3.323-1.681,6.7-2.53,10.042a7.9,7.9,0,0,1-.751,2.177,1.9,1.9,0,0,1-1.35.727c-.237.015-.724-.667-.746-1.053-.152-2.764-1.49-5.127-2.456-7.616a2.535,2.535,0,0,0-2.666-1.936,4.8,4.8,0,0,1-2.171-.612c-1.56-.773-1.69-.788-2.726.7-.564.809-1.016,1.7-1.638,2.461a34.653,34.653,0,0,1-7.748,6.495c-4.012,2.7-8.619,4.12-13.011,6.006A4.264,4.264,0,0,1,334.352,297.264Z" transform="translate(18.445 9.127)"/><path class="a" d="M49.05,253.656c.189-.775.357-1.556.573-2.324.837-2.975,1.515-6.012,2.613-8.888a13.621,13.621,0,0,1,2.891-3.835,2.173,2.173,0,0,1,1.684-.556c2.335.347,4.483,3.581,3.911,5.919a3.157,3.157,0,0,1-1.264,1.762c-.764.481-1.456-.124-2-.724-.237-.261-.455-.541-.705-.789a1.225,1.225,0,0,0-2.014.048,10.658,10.658,0,0,0-1.463,2.5c-1.347,3.356-1.668,6.969-2.523,10.45-.4,1.64-.9,3.261-1.429,4.864-.242.73-.627,1.541-1.615,1.349-.88-.173-.933-1-.918-1.7.05-2.273-1.027-4.232-1.734-6.282a49.429,49.429,0,0,0-2.12-4.837,1.775,1.775,0,0,0-2.388-1.086c-1.683.481-4.439-1.053-4.961-2.667a2.434,2.434,0,0,1,.034-1.627,37.334,37.334,0,0,1,2.029-3.7,1.486,1.486,0,0,1,2.058-.506,9.959,9.959,0,0,1,4.734,3.746,21.122,21.122,0,0,1,2.914,6.764,10.418,10.418,0,0,0,.937,2.177Z" transform="translate(0.917 7.077)"/><path class="a" d="M253.361,297.17c-.052-1.176.7-1.619,1.515-2.082,3.359-1.915,6.7-3.86,10.049-5.8a37.221,37.221,0,0,0,4.523-2.7c2.534-2.006,4.988-4.131,7.313-6.375a25.38,25.38,0,0,0,2.52-3.638c1.321-1.84,1.965-1.909,3.8-.553a11.993,11.993,0,0,1,4.181,6.691c.184.628.4,1.246.653,2.029a3.24,3.24,0,0,0,1.669-3.039,15.388,15.388,0,0,1,2.815-6.987,2.868,2.868,0,0,1,2.739-1.616,2.966,2.966,0,0,1,2.459,2.055,3.732,3.732,0,0,1,.383,3.054c-.392,1.009-1.041,1.236-2,.708-.183-.1-.335-.258-.51-.375-1.8-1.192-2.639-.891-3.153,1.149q-1.367,5.431-2.717,10.865c-.069.273-.079.618-.254.795a14.883,14.883,0,0,1-1.358,1.114c-.311-.426-.836-.822-.9-1.282-.384-2.795-1.954-5.123-2.906-7.689a1.82,1.82,0,0,0-2.125-1.344,3.345,3.345,0,0,1-2.549-.69c-1.036-.68-1.65-.581-2.288.526-2.066,3.594-5.239,6.058-8.467,8.454a23.22,23.22,0,0,1-3.989,2.366,62.446,62.446,0,0,1-10.741,4.331A3.72,3.72,0,0,1,253.361,297.17Z" transform="translate(13.696 9.132)"/><path class="a" d="M317.074,146.565c-.238-.393-.642-.769-.686-1.183a11.519,11.519,0,0,0-2.291-5.16,2.931,2.931,0,0,1-.593-1.539,2.722,2.722,0,0,1,.621-1.836c.3-.262,1.2-.034,1.724.208a21.9,21.9,0,0,1,2.736,1.59,16.4,16.4,0,0,0,9.7,2.394c2.733-.086,5.5.008,8.168-.808,3.291-1.006,6.657-1.774,9.737-3.42a11.969,11.969,0,0,1,3.768-1.244c1.785-.273,2.671.62,2.512,2.454a6.069,6.069,0,0,1-.9,2.715c-1.114,1.7-2.4,3.3-3.665,4.9a8.909,8.909,0,0,1-1.463,1.177,2.33,2.33,0,0,1,.465-2.635c.835-1.042,1.734-2.034,2.616-3.037.434-.493.963-1.094.379-1.633a2.148,2.148,0,0,0-1.68-.263,10.55,10.55,0,0,0-1.9.914c-7.228,3.294-14.707,5.254-22.733,4.15-1.04-.143-2.046-.515-3.074-.758-1.522-.36-1.861-.155-2.3,1.312-.17.57-.371,1.131-.556,1.695Z" transform="translate(17.223 1.065)"/><path class="a" d="M233.7,196.327c-1.112-.822-.862-1.8-.834-2.666a21.412,21.412,0,0,0-3-11.5c-.869-1.518-1.8-2.747-3.895-2.65-1.474.07-2.147-.737-2.292-2.235a14.553,14.553,0,0,1,.034-3.366c.255-1.829,1.374-2.455,3.011-1.555a8.932,8.932,0,0,1,2.819,2.455,21.457,21.457,0,0,1,3.653,8.019,25.369,25.369,0,0,0,.937,2.63c.477-.606.826-.864.9-1.184a4.5,4.5,0,0,0-.005-1.468,31.62,31.62,0,0,1,1.282-12.946,12.29,12.29,0,0,1,2.269-3.967c.85-1.049,1.727-.862,2.71.084,1.583,1.519,1.645,3.332,1.081,5.273a1.714,1.714,0,0,1-1.513,1.269c-2.4.419-3.058,1.068-3.41,3.472-.233,1.6-.284,3.227-.477,4.834-.487,4.05-.974,8.1-1.537,12.142A4.315,4.315,0,0,1,233.7,196.327Z" transform="translate(11.95 2.804)"/><path class="a" d="M358.408,234.125a12.36,12.36,0,0,0,.194-2.173,40.037,40.037,0,0,1,1.518-12.961,9.186,9.186,0,0,1,1.261-2.881,2.38,2.38,0,0,1,4.355.4,5.029,5.029,0,0,1,.236,3.913,2.065,2.065,0,0,1-2.038,1.52c-1.847.081-2.057.21-2.33,1.987-.544,3.55-.927,7.123-1.432,10.679-.415,2.925-.909,5.838-1.372,8.756a1.7,1.7,0,0,1-.122.4c-.31.714-.606,1.612-1.571,1.389-.885-.205-.711-1.085-.645-1.784.4-4.168-1.084-7.917-2.719-11.587a4.282,4.282,0,0,0-4.287-2.849c-1.518.048-2.033-.553-2.091-2.066a17.629,17.629,0,0,1,.23-3.99c.3-1.569,1.394-2.039,2.852-1.39a4.09,4.09,0,0,1,1.383.949,15.974,15.974,0,0,1,3.671,5.853c.512,1.68,1.028,3.359,1.6,5.02a3.657,3.657,0,0,0,.718.928Z" transform="translate(19.207 5.718)"/><path class="a" d="M425.338,289.2c1.085-1.17,2.675-1.415,4.045-2.043,4.418-2.022,8.937-3.835,13.277-6.01a19.432,19.432,0,0,0,7.863-7.47,32.778,32.778,0,0,1,4.183-5c1.11-1.19,2.3-.937,3.429.21a5.364,5.364,0,0,1,1.108,6.723c-.957,1.969-2.564,2.38-4.269.982a7.293,7.293,0,0,0-3.068-1.929c-.893,1.358-1.724,2.552-2.484,3.79a16.551,16.551,0,0,1-5.362,5.016,30.325,30.325,0,0,1-10.534,4.751c-1.931.392-3.809,1.044-5.735,1.467a11.2,11.2,0,0,1-2.363.028Zm31.035-15.448c.507-.559.942-.833,1.048-1.2.173-.6-.583-1.28-1.353-1.165-.374.056-.691.491-1.034.756C455.426,272.607,455.816,273.078,456.373,273.749Z" transform="translate(23.781 8.827)"/><path class="a" d="M150.562,260.888c1.528-.315,3.378-.692,5.225-1.084.343-.073.669-.222,1.01-.3.622-.151,1.392-.358,1.574.462.075.341-.437,1-.844,1.227a19.751,19.751,0,0,1-8.215,2.5,6.373,6.373,0,0,1-2.1-.106c-3.681-1.013-4.6-2.889-3.36-6.058a13.367,13.367,0,0,1,2.286-3.491c1.03-1.242,2.288-2.293,3.355-3.507a1.228,1.228,0,0,0-.916-2.219c-1.117-.082-2.249.07-3.372.045-1.177-.025-1.5-.7-.825-1.655a3.526,3.526,0,0,1,2.805-1.677c1.532-.015,3.067.173,4.6.3.931.079,1.3.7,1.413,1.564a3.653,3.653,0,0,1-.8,3.161c-1.627,1.744-3.269,3.473-4.893,5.22A19.038,19.038,0,0,0,146,257.02c-1.085,1.5-.709,2.858,1.07,3.436A19.586,19.586,0,0,0,150.562,260.888Z" transform="translate(7.243 7.486)"/><path class="a" d="M260.464,147.447a27.656,27.656,0,0,1-.418-2.947,24.427,24.427,0,0,0-1.721-8.644,6.881,6.881,0,0,0-.745-1.505,2.207,2.207,0,0,0-3.6-.043,4.09,4.09,0,0,0-.42.727c-.33.671-.405,1.672-1.378,1.655-1.046-.019-1.222-1.036-1.5-1.809a16.409,16.409,0,0,1-.706-2.429,4.6,4.6,0,0,1,2.066-4.521c1.484-.885,2.784-.4,4.121.459a10.628,10.628,0,0,1,3.9,5.122A26.305,26.305,0,0,1,262,144.86C261.952,146.181,261.94,146.181,260.464,147.447Z" transform="translate(13.493 0.592)"/><path class="a" d="M140.889,132.036c.807-2.61,1.968-5.3,4.962-6.609,2-.873,4.034-1.659,6.088-2.388,1.92-.682,3.893-1.215,5.827-1.86.729-.243,1.412-.626,2.125-.922a5.469,5.469,0,0,1,1.382-.471,1.071,1.071,0,0,1,.905.34c.148.322.181.95-.022,1.135a9.466,9.466,0,0,1-2.64,1.988c-3.332,1.318-6.754,2.4-10.1,3.682a51.588,51.588,0,0,0-4.957,2.327c-.669.341-1.574.8-1.3,1.683.166.546.93.936,1.473,1.333a12.688,12.688,0,0,1,1.742,1.131,1.647,1.647,0,0,1,.206,2.3,1.533,1.533,0,0,1-2.1.279c-.806-.432-1.6-.888-2.4-1.333C141.163,134.147,140.889,133.314,140.889,132.036Z" transform="translate(7.1 0.142)"/><path class="a" d="M404,246.047c.656-.588,1.286-1.207,1.974-1.753.936-.743,1.964-1.376,2.865-2.158,1.194-1.035,1.346-1.733.582-3.141a2.882,2.882,0,0,1-.139-2.606c.66-1.773,1.226-3.582,1.836-5.375.371-1.088.907-1.4,1.893-1.1,2.521.757,5.563,5.431,5.238,8.047-.265,2.132-1.486,3.284-3.6,2.811-2.213-.5-3.384.322-4.5,2.091-1.321,2.1-3.505,3.046-5.751,3.759Zm10.458-10.233c-.153.247-.6.649-.624,1.073a1.261,1.261,0,0,0,1.313,1.361,1.1,1.1,0,0,0,1.31-1.063C416.491,236.528,415.6,235.815,414.454,235.814Zm-3.306-1.721a7.588,7.588,0,0,0-.9,1.767c-.115.773.56,1.563,1.159,1.47a1.077,1.077,0,0,0,.91-1.409A7.815,7.815,0,0,0,411.148,234.092Z" transform="translate(22.529 6.594)"/><path class="a" d="M331.921,137.457c-.082-1.217-.187-2.044-.182-2.872.024-3.877-1.845-6.843-4.467-9.466a13.557,13.557,0,0,1-1.555-1.712,1.668,1.668,0,0,1,.225-2.3c.745-.751,1.489-.545,2.265.012,4.011,2.875,6.408,10.609,4.7,15.313C332.8,136.732,332.427,136.941,331.921,137.457Z" transform="translate(17.918 0.191)"/><path class="a" d="M176.22,285.005a6.128,6.128,0,0,0,.074-1.535A4.374,4.374,0,0,1,176.22,285.005Z" transform="translate(9.172 9.741)"/><path class="a" d="M180.019,279.8l-.031.019c-.048.027-.1.066-.144.089s-.106.053-.159.074c-.074.032-.169.074-.265.106a3.766,3.766,0,0,0-2.456,3.705v.042a6.13,6.13,0,0,1-.074,1.535,10.4,10.4,0,0,1-3.494,5.8h-.011a17.287,17.287,0,0,1-5.293,3.419c-1.09.466-2.2.847-3.3,1.26.392-.942,3.97-3.621,6.733-5.4a8,8,0,0,0,3.229-5.674v-.011c-.042-.159-.085-.307-.127-.466a3.553,3.553,0,0,0-2.276-2.795c-.2-.063-.455-.116-.551-.275-.328-.487-.868-1.048-.815-1.535a1.782,1.782,0,0,1,1.09-1.281,3.131,3.131,0,0,1,1.9.423c.3.159.381.72.614,1.069.265.392.508.91.889,1.1a8.274,8.274,0,0,1,.815.381,10.767,10.767,0,0,1,1.207-2.827,1.258,1.258,0,0,1,.116-.191c.032-.053.053-.085.053-.085l.017-.01a2.85,2.85,0,0,1,.629-.689,2.013,2.013,0,0,1,1.673-.3,1.8,1.8,0,0,1,.985,1.355C180.957,279.053,180.469,279.526,180.019,279.8Z" transform="translate(8.502 9.374)"/></g></svg>